# xmcd
#
# Track frame offsets:
#	150
#	15484
#	28836
#	42823
#	57119
#	72221
#	83088
#	97449
#	117952
#	136656
#	156162
#	176833
#	196882
#	211553
#	224687
#	244718
#	258360
#	274238
#	287135
#	302331
#	314539
#
# Disc length: 4405 seconds
#
# Revision: 2
# Processed by: cddbd v1.5.2PL0 Copyright (c) Steve Scherf et al.
# Submitted via: audiograbber 1.83.01
#
DISCID=2e113315
DTITLE=Markus Heitz - Totenblick
DYEAR=2013
DGENRE=Thriller
TTITLE0=042 Totenblick
TTITLE1=043 Totenblick
TTITLE2=044 Totenblick
TTITLE3=045 Totenblick
TTITLE4=046 Totenblick
TTITLE5=047 Totenblick
TTITLE6=048 Totenblick
TTITLE7=049 Totenblick
TTITLE8=050 Totenblick
TTITLE9=051 Totenblick
TTITLE10=052 Totenblick
TTITLE11=053 Totenblick
TTITLE12=054 Totenblick
TTITLE13=055 Totenblick
TTITLE14=056 Totenblick
TTITLE15=057 Totenblick
TTITLE16=058 Totenblick
TTITLE17=059 Totenblick
TTITLE18=060 Totenblick
TTITLE19=061 Totenblick
TTITLE20=062 Totenblick
EXTD=
EXTT0=
EXTT1=
EXTT2=
EXTT3=
EXTT4=
EXTT5=
EXTT6=
EXTT7=
EXTT8=
EXTT9=
EXTT10=
EXTT11=
EXTT12=
EXTT13=
EXTT14=
EXTT15=
EXTT16=
EXTT17=
EXTT18=
EXTT19=
EXTT20=
PLAYORDER=
